<?xml version="1.0" encoding="utf-8"?>
<!-- Generator: Adobe Illustrator 21.1.0, SVG Export Plug-In . SVG Version: 6.00 Build 0)  -->
<svg version="1.1" xmlns="http://www.w3.org/2000/svg" xmlns:xlink="http://www.w3.org/1999/xlink" x="0px" y="0px"
	 viewBox="0 0 1366 768" style="enable-background:new 0 0 1366 768;" xml:space="preserve">
<style type="text/css">
	.st0{fill:#FD5B5C;}
	.st1{fill:#F7F7F7;}
</style>
<g id="line">
	<path class="st0" d="M869.2,208.7c-1.3,10.6-3.6,20.9-7.7,30.8c-1.2,3-2.3,6-2.9,9.1c-1.2,5.6-3,10.7-8.3,14
		c-1.6,1-2.6,2.9-2.5,4.8c0.3,4-2,6.1-4.8,8.1c-2.6,1.8-4.3,4.2-4,7.3c0.6,8.2-5.3,11.6-10.7,15.3c-1.8,1.2-3.4,2.1-3.1,4.5
		c0.7,6.7-2.7,11.2-7.9,14.6c-5.5,3.6-10.7,7.9-17.1,10.2c-2.3,0.8-3.3,2.9-4.3,5c-2.6,5.9-6.2,7.9-12.3,6.3c-3.7-1-5.6,0.8-6.2,3.7
		c-1.5,7.5-7,10.3-13.4,12c-4.6,1.2-8.5,2.9-10.6,7.5c-0.8,1.7-2.6,2.6-4.4,3.2c-5.3,1.7-10.1,4.7-16.3,4.4
		c-3.6-0.2-7.4,2.6-11.1,4.1c-7.6,3.2-15.1,6.5-23.7,6c-2.4-0.1-4.8,0.9-6.7,2.4c-5,3.7-10.7,4.6-16.6,4.5c-8.1,0-15.9,2.6-24.1,2.9
		c-12.7,0.6-25.4,2.5-38,3.2c-6.9,0.4-14,1.1-21.1,0.5c-6.8-0.7-15.3-11.7-13.8-18.3c0.4-1.7,0.8-3.3,1.2-5
		c1.2-5.1,3.7-8.9,9.2-10.5c3.5-1,6.9-2.7,9.7-5.3c2.1-2,4.8-2.1,7.5-1.2c4.3,1.4,8.6,1.3,12.9-0.3c3.1-1.2,6.2-1,9.3,0.2
		c5.7,2.2,11.5,1.5,17.3,0.6c1.2-0.2,2.5-0.6,3-1.7c1.5-3.2,3.8-3.1,6.9-2.8c5.8,0.6,11.6,1,17.4,1.9c2.2,0.3,4.5,0.2,6.7-0.5
		c3.6-1.1,7.1-2.7,11.1-2.4c2.9,0.2,5.1-2.1,6.6-4.5c2.3-3.6,5.5-4.4,9.6-4.1c7.4,0.5,14.5-0.8,20-6.6c1.7-1.8,3.7-1.1,5.6-0.7
		c5,1,5.6,0.7,6.9-4.3c0.7-2.7,2.4-4,5.1-4c14.3-0.4,26.5-6.3,37.1-15.3c4.8-4.1,9-9,13.4-13.6c1.5-1.5,3-3.2,5.2-3.6
		c8-1.2,12.8-6.7,16.1-13c5-9.5,11.9-17.1,19.7-24.2c6-5.4,10.1-12.3,11.7-20.4c1-5,2.9-9.6,6.2-13.6c2.3-2.8,4-5.9,5.2-9.4
		c0.9-2.7,2.3-5.1,4.8-6.6c3.8-2.3,5.8-1.3,6,3C869.3,207.3,869.2,208,869.2,208.7z"/>
</g>
<g id="b">
	<path class="st1" d="M628.6,329c-2.8,0-5.6-0.5-8.3,0.7c-2.9,1.3-4.3,3.7-5,6.7c-1.1,4.6-3.7,5.8-8,3.6c-5.8-3-9.6-7.9-10.8-14.1
		c-2.5-12.3-6.5-24-12.4-35.2c-2.5-4.8-2-10.6-3-16c-2.5-14.3-9.6-26.6-16.4-39.1c-13-24.1-25.9-48.2-38.9-72.3
		c-1.8-3.4-3.7-6.8-5.5-10.2c-2.1-4.2-1.5-6.5,2.3-10.1c3.4-3.2,6.3-3.7,10.1-1.5c5.1,2.9,8.6,7.4,11.5,12.4
		c11.9,20.4,21,42.1,30.3,63.6c5,11.5,9.8,23,14.7,34.4c2.8,6.6,4.1,7.1,10.4,3.9c1.7-0.9,3.3-1.7,5-2.5c10.6-5.3,18.7-4.2,27.2,4.1
		c8.8,8.6,14.3,19.4,19.1,30.6c2,4.8,3.8,9.6,5.7,14.4c1.4,3.6,1.1,7.2-0.9,10.3C649.5,322.7,641.3,329.8,628.6,329z M611.6,261.9
		c-3.4,0-10.5,4.1-13.6,7.5c-2.7,3-0.9,6.1-0.5,9.1c1.6,10,3.2,19.9,6.1,29.6c1,3.2,2.4,4,5.5,2.2c6.1-3.5,12.3-6.8,18.6-10.1
		c1.8-0.9,2.7-2.1,2.2-4.1c-2.5-8.8-4.3-17.8-7.8-26.3C620.2,265.5,617.2,261.9,611.6,261.9z"/>
</g>
<g id="e_1_">
	<path class="st1" d="M667.1,278.8c-9-0.4-15.9-3.6-20.3-11.5c-3.3-5.8-6.9-11.3-9.8-17.3c-3.3-6.9-2.3-13.4,2.9-19.1
		c2.3-2.5,4.9-4.9,7.8-6.8c2.3-1.5,4.8-1.9,7.2-0.5c3.7,2.1,6.9,4.9,9.4,8.5c1.5,2.1,1,4-0.8,5.7c-2.9,2.7-5.9,5.3-8.8,8
		c-2,1.8-2.2,3.8-0.4,5.9c4.4,5,8.9,9.9,13.2,14.9c2,2.3,3.6,2.1,5.6,0.2c2.1-2.1,3.6-4.6,5.3-7c0.4-0.6,0.9-1.5,1.8-1.4
		c1.1,0.1,1.3,1.2,1.5,2.1C682.9,267.5,676.6,279.9,667.1,278.8z M656.6,234.3c0.1-1-0.9-1.2-1.7-1.5c-2.3-0.9-8.1,3-8.1,5.5
		c0,1.5,0.4,3.2,2.3,3.7C649.8,242.1,656.5,235.3,656.6,234.3z"/>
</g>
<g id="q">
	<path class="st1" d="M715.4,265c-0.3,4.1-0.6,8.2-0.9,12.3c-0.2,2.9,0.9,3.4,3.6,2.5c10-3.6,15.2-11,15.6-21.8
		c0.2-5.1-0.8-10.1-0.9-15.1c0-1-0.4-2.6,0.9-2.6c1.6,0,0.9,1.5,0.9,2.5c-0.2,3.8,2.2,6.1,4.6,8.5c6.6,6.6,7.6,17.1,2.5,25
		c-2.5,3.9-5.4,7.5-8.7,10.9c-5.4,5.5-11.1,10.7-15.9,16.7c-2,2.5-4.3,3-7.4,1.9c-5.1-1.8-9.6-4.5-13.9-7.8c-3-2.3-4.1-5.2-3-9.1
		c3-10.6,5.8-21.3,8.4-32c1.1-4.4,1.5-8.9,2-13.4c0.2-1.2,0.6-2.9-0.8-3.6c-1.3-0.6-2.1,0.9-2.9,1.6c-7.7,6.3-15.8,6.4-21.7,0.2
		c-5.7-6-5.4-25.7,0.6-31.5c3.7-3.6,8.5-4,13.1-2.9c3.4,0.8,4.3-0.4,4.8-3.2c0.1-0.8,0.4-1.5,0.6-2.3c0.2-0.7,0.4-1.7,1.3-1.8
		c0.9,0,1.2,0.9,1.5,1.7c4,9.4,10.6,17.7,10,28.9c-0.3,6,2.1,12,3.8,17.9C714.9,253.9,715.7,259.4,715.4,265z M699.2,223.1
		c-0.2-1-0.6-3-1.1-4.9c-1.1-4-2.6-4.8-6.8-3.9c-7.5,1.8-10.5,6.9-8.3,14.3c0.9,2.8,1.3,6.3,5,7c3.1,0.6,7.6-2.1,9.5-5.5
		C698.5,228.3,699.2,226.3,699.2,223.1z"/>
</g>
<g id="u">
	<path class="st1" d="M775.8,183.4c3.3,2.8,4.6,8,6.2,11.9c2.3,5.8,4.5,11.8,6,17.9c2,8.3,5.6,17.3-2.4,23.1
		c-3.9,2.8-7.4,0.1-11-2.5c-4.4-3.2-4.8-3.1-9.2,0.9c-4.7,4.2-12.8,13.4-19.7,10.9c-6.2-2.3-11.1-10.9-15.6-15.3
		c-3.2-3-4.8-6.3-5.9-10.4c-1.1-3.9-4.9-11.2-3.4-15.2c1.4-3.7,5.6-3,8.4-1.4c4.6,2.4,4.4,7.3,5.8,11.8c1.5,4.4,11.3,20,16.5,14.2
		c1.4-1.5,1.7-4.8,2.6-6.7c1.3-2.7,2.7-5,3.6-8c1.3-4.4,2.5-8.9,3.8-13.4C763,195.6,765.5,174.6,775.8,183.4z"/>
</g>
<g id="e-2">
	<path class="st1" d="M795.7,199c-1.3-14.9,8.9-21.8,18.8-24.4c2.7-0.7,4.7,0,6.2,2.3c2.3,3.6,3.9,7.6,5.2,11.6
		c0.8,2.4-0.2,4.2-2.7,4.9c-3.2,1-6.3,2-9.5,2.8c-3,0.8-4.1,2.7-3.4,5.7c1.7,6.3,3.4,12.6,5.1,18.8c0.8,2.9,2.4,3.5,5.1,2.2
		c2.6-1.3,5.3-2.5,8-3.7c0.9-0.4,1.8-1.6,2.8-0.5c0.7,0.8,0,1.8-0.3,2.6c-3.3,10.9-16.4,14.7-25.5,7.4c-5.2-4.1-8-9.5-8.7-16
		C796.2,208.3,796,203.7,795.7,199z M810.7,191.3c2.2-0.9,4.6-1.7,6.9-2.8c1.7-0.7,1.1-1.9,0.2-2.8c-1.5-1.5-3.3-2.1-5.5-1.3
		c-2.5,1-3.2,3.1-3.5,5.4C808.6,191,809.4,191.5,810.7,191.3z"/>
</g>
<g id="korean">
	<g>
		<path class="st1" d="M752.1,394l-0.9,1.9l1.6,5.5l-4,1.1l-5.1-18.3l4-1.1l2,7.1l3.8-8.7l4.9-1.4l-4.5,10l10,8.2l-4.9,1.4
			L752.1,394z"/>
		<path class="st1" d="M776.7,386.6c1.6,4.3-0.4,7.5-4.8,9.1c-4.3,1.6-7.9,0.4-9.4-3.9l-2-5.4c-1.6-4.3,0.4-7.5,4.8-9.1
			c4.3-1.6,7.9-0.4,9.4,3.9L776.7,386.6z M770.8,382.6c-0.7-2-2.4-2.6-4.2-1.9c-1.9,0.7-2.8,2.2-2.1,4.2l2,5.4
			c0.7,2,2.4,2.6,4.2,1.9c1.9-0.7,2.8-2.2,2.1-4.2L770.8,382.6z"/>
		<path class="st1" d="M774.5,374.1l7.3-3.5c3.5-1.7,6.7-1.2,8.6,2.8c1.3,2.8,1.1,5-0.4,6.7l6.2,4.6l-4.4,2.1l-5.5-4.3l-2.4,1.2
			l2.8,5.7l-3.8,1.8L774.5,374.1z M782.2,380.4l3.4-1.6c1.3-0.6,1.8-1.6,0.9-3.4c-0.9-1.8-2-2-3.2-1.4l-3.4,1.6L782.2,380.4z"/>
		<path class="st1" d="M789.2,366.8l11.1-7.2l2,3.1l-7.6,4.9l2.2,3.3l6.4-4.2l2,3.1l-6.4,4.2l2.2,3.4l7.6-4.9l2,3.1l-11.1,7.2
			L789.2,366.8z"/>
		<path class="st1" d="M826.2,362.2l-3.4,3l-3.6-2.2l-4.8,4.3l1.8,3.8l-3.1,2.8l-8-18.3l3.8-3.4L826.2,362.2z M812.8,363.9l3.1-2.8
			l-6.1-3.7L812.8,363.9z"/>
		<path class="st1" d="M822.5,349.3l8.3,7.7l-2.9,3.1L814,347.2l2.7-2.9l13,2.5l-8.3-7.7l2.9-3.1l13.9,12.9l-2.7,2.9L822.5,349.3z"
			/>
		<path class="st1" d="M847.7,327.2l-0.2-0.2l-2.5,3.1l-2.9-2.3l5.1-6.4l8.2,6.6l-1.9,2.4l-1.5-0.4c0.1,1.6-0.5,3.3-1.7,4.8
			c-2.4,3-5.9,3.7-9.5,0.9l-4.4-3.5c-3.8-3-3.6-6.7-0.8-10.3c2.8-3.5,6.1-4.8,9.5-2l0.3,0.2l-2.6,3.3l-0.3-0.2
			c-1.4-1.1-2.8-0.5-4.1,1c-1.3,1.6-1.4,3.2,0.5,4.7l4.4,3.5c1.7,1.3,3.4,1,4.6-0.6C849.4,330.3,849.3,328.6,847.7,327.2z"/>
		<path class="st1" d="M842.3,314l4.7-6.6c2.3-3.2,5.3-4.2,8.9-1.6c2.5,1.8,3.3,3.9,2.8,6.1l7.6,1.1l-2.9,4l-6.9-1.2L855,318
			l5.1,3.7l-2.5,3.4L842.3,314z M852,315.9l2.2-3c0.8-1.1,0.8-2.2-0.8-3.4c-1.6-1.2-2.7-0.8-3.5,0.3l-2.2,3L852,315.9z"/>
		<path class="st1" d="M852.2,300.1l2.3-3.5l15.7,10.6l-2.3,3.5L852.2,300.1z"/>
		<path class="st1" d="M856.2,294.1l2.2-3.6l13,8.2l4.8-7.6l3.1,2l-7.1,11.2L856.2,294.1z"/>
		<path class="st1" d="M864.2,281.3l2.1-3.6l13.3,7.6l4.5-7.8l3.2,1.8l-6.6,11.5L864.2,281.3z"/>
	</g>
</g>
</svg>
