<?xml version="1.0" encoding="utf-8"?>
<!-- Generator: Adobe Illustrator 21.1.0, SVG Export Plug-In . SVG Version: 6.00 Build 0)  -->
<svg version="1.1" xmlns="http://www.w3.org/2000/svg" xmlns:xlink="http://www.w3.org/1999/xlink" x="0px" y="0px"
	 viewBox="0 0 609 534" style="enable-background:new 0 0 609 534;" xml:space="preserve">
<style type="text/css">
	.st0{fill:#FD5B5C;}
	.st1{fill:#F7F7F7;}
</style> 
<g id="line">
	<path class="st0" d="M499.5,179c-1.7,13.3-4.5,26.2-9.7,38.6c-1.5,3.7-2.9,7.5-3.7,11.4c-1.5,7-3.8,13.4-10.4,17.5
		c-2,1.2-3.3,3.7-3.1,6c0.4,5-2.6,7.7-6,10.1c-3.2,2.3-5.4,5.3-5.1,9.2c0.8,10.2-6.6,14.6-13.5,19.2c-2.3,1.5-4.2,2.6-3.9,5.6
		c0.9,8.4-3.4,14-9.9,18.3c-6.9,4.5-13.4,9.9-21.4,12.7c-2.9,1-4.2,3.6-5.4,6.3c-3.3,7.4-7.8,9.9-15.5,7.8c-4.6-1.2-7.1,1-7.8,4.7
		c-1.9,9.3-8.7,13-16.8,15.1c-5.7,1.5-10.6,3.6-13.3,9.4c-1,2.1-3.3,3.3-5.6,4c-6.7,2.1-12.7,5.9-20.4,5.5
		c-4.5-0.3-9.3,3.2-13.9,5.2c-9.5,4-19,8.2-29.7,7.5c-3-0.2-6,1.2-8.4,3c-6.2,4.7-13.4,5.7-20.8,5.7c-10.2-0.1-20,3.2-30.2,3.7
		c-15.9,0.7-31.8,3.2-47.7,4c-8.7,0.5-17.6,1.4-26.4,0.6c-8.6-0.8-19.2-14.6-17.3-22.9c0.5-2.1,1.1-4.2,1.6-6.3
		c1.5-6.4,4.7-11.1,11.5-13.1c4.4-1.3,8.6-3.3,12.1-6.7c2.6-2.5,6-2.6,9.4-1.5c5.4,1.7,10.8,1.7,16.2-0.3c3.9-1.4,7.7-1.3,11.7,0.3
		c7.1,2.8,14.4,1.9,21.7,0.7c1.5-0.3,3.2-0.7,3.8-2.1c1.8-4,4.8-3.9,8.6-3.5c7.3,0.7,14.6,1.3,21.8,2.3c2.8,0.4,5.6,0.2,8.4-0.6
		c4.5-1.4,8.9-3.3,13.9-3c3.7,0.3,6.4-2.6,8.3-5.7c2.9-4.5,6.9-5.5,12-5.1c9.3,0.7,18.2-1,25-8.2c2.1-2.2,4.6-1.4,7-0.9
		c6.3,1.3,7,0.9,8.7-5.4c0.9-3.4,3-5,6.4-5.1c17.9-0.5,33.2-7.9,46.6-19.2c6.1-5.2,11.2-11.3,16.8-17.1c1.9-1.9,3.8-4.1,6.5-4.5
		c10-1.4,16.1-8.4,20.2-16.3c6.3-11.9,14.9-21.4,24.7-30.4c7.5-6.8,12.7-15.4,14.7-25.6c1.2-6.3,3.7-12.1,7.8-17.1
		c2.9-3.5,5-7.5,6.5-11.7c1.2-3.3,2.8-6.3,6.1-8.3c4.8-2.9,7.3-1.7,7.5,3.8C499.5,177.4,499.5,178.2,499.5,179z"/>
</g>
<g id="b">
	<path class="st1" d="M197.8,329.9c-3.5,0-7-0.6-10.4,0.9c-3.7,1.7-5.3,4.7-6.3,8.5c-1.4,5.8-4.7,7.3-10,4.6
		c-7.3-3.8-12-9.9-13.6-17.7c-3.1-15.5-8.2-30.1-15.5-44.1c-3.2-6.1-2.6-13.3-3.7-20c-3.2-18-12-33.4-20.5-49.1
		c-16.3-30.2-32.5-60.4-48.8-90.7c-2.3-4.3-4.7-8.5-6.8-12.8c-2.6-5.2-1.9-8.2,2.9-12.7c4.3-4,7.9-4.6,12.6-1.9
		c6.4,3.7,10.7,9.2,14.4,15.6c14.9,25.5,26.3,52.8,38,79.8c6.2,14.4,12.3,28.8,18.5,43.2c3.6,8.3,5.1,8.9,13,4.8
		c2.1-1.1,4.2-2.1,6.2-3.2c13.3-6.7,23.4-5.2,34.1,5.2c11.1,10.8,18,24.3,24,38.3c2.6,6,4.8,12.1,7.2,18.1c1.8,4.5,1.4,9.1-1.2,13
		C224,321.9,213.7,330.8,197.8,329.9z M176.6,245.8c-4.3,0-13.2,5.1-17.1,9.5c-3.4,3.7-1.2,7.6-0.6,11.4c2,12.5,4,25,7.7,37.1
		c1.2,4,3,5,6.8,2.8c7.6-4.4,15.5-8.5,23.3-12.6c2.2-1.2,3.4-2.6,2.7-5.2c-3.1-11-5.4-22.4-9.8-33
		C187.3,250.2,183.5,245.7,176.6,245.8z"/>
</g>
<g id="e_1_">
	<path class="st1" d="M246.1,266.9c-11.2-0.5-19.9-4.5-25.5-14.4c-4.1-7.2-8.7-14.2-12.3-21.7c-4.2-8.6-2.9-16.8,3.6-23.9
		c2.9-3.2,6.1-6.2,9.7-8.6c2.9-1.9,6-2.3,9-0.7c4.7,2.6,8.6,6.2,11.7,10.6c1.9,2.7,1.2,5-1,7.1c-3.7,3.4-7.4,6.7-11.1,10.1
		c-2.5,2.3-2.8,4.8-0.5,7.4c5.5,6.2,11.1,12.4,16.5,18.7c2.4,2.8,4.5,2.7,7.1,0.2c2.7-2.6,4.5-5.7,6.6-8.7c0.6-0.8,1.1-1.9,2.2-1.8
		c1.4,0.1,1.7,1.5,1.9,2.6C265.8,252.8,258,268.3,246.1,266.9z M233,211.2c0.1-1.2-1.2-1.6-2.2-1.9c-2.9-1.1-10.2,3.7-10.1,6.9
		c0,1.9,0.5,4,2.9,4.6C224.4,220.9,232.8,212.5,233,211.2z"/>
</g>
<g id="q">
	<path class="st1" d="M306.7,249.6c-0.4,5.1-0.7,10.3-1.2,15.4c-0.3,3.7,1.2,4.3,4.5,3.1c12.5-4.6,19.1-13.8,19.5-27.3
		c0.2-6.4-0.9-12.6-1.1-18.9c0-1.2-0.5-3.3,1.2-3.3c1.9,0,1.2,1.9,1.1,3.1c-0.3,4.7,2.8,7.6,5.7,10.6c8.2,8.2,9.6,21.5,3.1,31.4
		c-3.2,4.9-6.8,9.4-10.9,13.6c-6.7,6.9-13.9,13.4-20,21c-2.6,3.2-5.4,3.8-9.3,2.4c-6.4-2.3-12.1-5.6-17.4-9.7
		c-3.8-2.9-5.2-6.5-3.8-11.4c3.7-13.3,7.3-26.7,10.5-40.1c1.3-5.5,1.8-11.2,2.6-16.8c0.2-1.6,0.7-3.7-1-4.6c-1.6-0.8-2.6,1.1-3.7,2
		c-9.7,7.9-19.8,8-27.3,0.3c-7.2-7.5-6.7-32.3,0.7-39.4c4.7-4.5,10.6-5,16.4-3.6c4.2,1,5.4-0.5,6-4.1c0.2-1,0.5-1.9,0.8-2.9
		c0.3-0.9,0.4-2.2,1.6-2.2c1.2,0,1.4,1.2,1.8,2.1c5,11.8,13.3,22.2,12.6,36.2c-0.4,7.6,2.6,15,4.8,22.4
		C306,235.7,307.1,242.6,306.7,249.6z M286.3,197.1c-0.3-1.3-0.7-3.7-1.4-6.1c-1.4-5-3.3-6.1-8.5-4.9c-9.4,2.2-13.2,8.6-10.4,17.9
		c1.1,3.5,1.6,7.8,6.3,8.8c3.8,0.8,9.5-2.6,11.9-6.9C285.5,203.6,286.3,201.1,286.3,197.1z"/>
</g>
<g id="u">
	<path class="st1" d="M382.3,147.3c4.1,3.5,5.8,10.1,7.7,15c2.9,7.3,5.7,14.8,7.5,22.4c2.5,10.4,7,21.7-3,29
		c-4.8,3.5-9.3,0.1-13.8-3.2c-5.5-4-6-3.9-11.6,1.1c-5.9,5.3-16,16.9-24.7,13.6c-7.7-2.9-13.9-13.7-19.5-19.1c-4-3.8-6-7.8-7.4-13
		c-1.3-4.9-6.2-14-4.3-19c1.8-4.7,7-3.7,10.6-1.8c5.8,3,5.5,9.2,7.3,14.8c1.8,5.6,14.1,25,20.7,17.8c1.7-1.9,2.1-6,3.3-8.4
		c1.6-3.4,3.4-6.3,4.5-10c1.6-5.6,3.2-11.2,4.7-16.8C366.4,162.6,369.5,136.3,382.3,147.3z"/>
</g>
<g id="e-2">
	<path class="st1" d="M407.3,166.9c-1.6-18.7,11.2-27.3,23.5-30.6c3.3-0.9,5.9,0,7.7,2.9c2.8,4.5,4.9,9.5,6.5,14.5
		c1,3.1-0.2,5.2-3.3,6.2c-4,1.2-7.9,2.5-12,3.6c-3.8,1-5.2,3.4-4.2,7.1c2.1,7.9,4.2,15.7,6.3,23.6c1,3.6,3.1,4.4,6.4,2.8
		c3.3-1.6,6.6-3.2,10-4.6c1.1-0.5,2.3-2,3.5-0.6c0.9,1,0,2.2-0.3,3.3c-4.2,13.6-20.6,18.4-32,9.3c-6.5-5.2-10-12-10.9-20.1
		C407.9,178.5,407.7,172.7,407.3,166.9z M426.2,157.3c2.8-1.1,5.7-2.2,8.6-3.4c2.1-0.9,1.4-2.4,0.2-3.5c-1.9-1.9-4.2-2.6-6.8-1.6
		c-3.1,1.2-4,3.9-4.4,6.7C423.5,156.8,424.5,157.5,426.2,157.3z"/>
</g>
<g id="korean">
	<g>
		<path class="st1" d="M352.6,411.3l-1.1,2.4l2,6.9l-5.1,1.4l-6.4-22.9l5.1-1.4l2.5,8.9l4.7-11l6.2-1.7l-5.6,12.5l12.6,10.3
			l-6.2,1.7L352.6,411.3z"/>
		<path class="st1" d="M383.5,402.1c2,5.4-0.6,9.4-6,11.4c-5.4,2-9.9,0.5-11.8-4.9l-2.5-6.8c-2-5.4,0.6-9.4,6-11.4
			c5.4-2,9.9-0.5,11.8,4.9L383.5,402.1z M376,397.1c-0.9-2.5-3-3.2-5.3-2.4c-2.4,0.9-3.5,2.7-2.6,5.3l2.5,6.8c0.9,2.5,3,3.2,5.3,2.4
			c2.4-0.9,3.5-2.7,2.6-5.3L376,397.1z"/>
		<path class="st1" d="M380.7,386.4l9.1-4.4c4.4-2.2,8.4-1.5,10.8,3.6c1.7,3.5,1.3,6.3-0.5,8.3l7.8,5.8l-5.5,2.7l-6.9-5.4l-3,1.5
			l3.5,7.1l-4.7,2.3L380.7,386.4z M390.4,394.3l4.2-2c1.6-0.8,2.2-2,1.1-4.3c-1.1-2.3-2.5-2.5-4.1-1.7l-4.2,2L390.4,394.3z"/>
		<path class="st1" d="M399.2,377.3l13.9-9l2.5,3.9l-9.5,6.1l2.7,4.2l8.1-5.2l2.5,3.9l-8.1,5.2l2.7,4.2l9.5-6.1l2.5,3.9l-13.9,9
			L399.2,377.3z"/>
		<path class="st1" d="M445.5,371.5l-4.3,3.8l-4.5-2.7l-6,5.4l2.2,4.8l-3.9,3.5l-10.1-22.9l4.8-4.3L445.5,371.5z M428.8,373.6
			l3.9-3.5l-7.7-4.6L428.8,373.6z"/>
		<path class="st1" d="M440.9,355.4l10.3,9.6l-3.6,3.9l-17.5-16.2l3.4-3.6l16.3,3.2l-10.3-9.6l3.6-3.9l17.5,16.2l-3.4,3.6
			L440.9,355.4z"/>
		<path class="st1" d="M472.5,327.6l-0.2-0.2l-3.1,3.9l-3.6-2.9l6.4-8l10.3,8.2l-2.4,3l-1.9-0.5c0.2,2-0.6,4.1-2.1,6
			c-3,3.8-7.4,4.7-11.9,1.1l-5.5-4.4c-4.7-3.8-4.5-8.4-0.9-12.9c3.5-4.4,7.6-6,12-2.5l0.3,0.3l-3.3,4.1l-0.3-0.3
			c-1.7-1.4-3.5-0.7-5.1,1.3c-1.6,2-1.7,4.1,0.6,6l5.5,4.4c2.1,1.7,4.2,1.2,5.8-0.7C474.6,331.5,474.6,329.3,472.5,327.6z"/>
		<path class="st1" d="M465.7,311.1l5.9-8.2c2.9-4,6.7-5.3,11.2-2c3.1,2.3,4.1,4.9,3.5,7.6l9.6,1.4l-3.6,5l-8.7-1.5l-2,2.7l6.4,4.6
			L485,325L465.7,311.1z M477.9,313.4l2.7-3.8c1-1.4,1-2.8-1-4.3c-2.1-1.5-3.4-1-4.4,0.4l-2.7,3.8L477.9,313.4z"/>
		<path class="st1" d="M478.1,293.6l2.9-4.4l19.7,13.3l-2.9,4.4L478.1,293.6z"/>
		<path class="st1" d="M483.2,286.1l2.8-4.5l16.3,10.2l6-9.6l3.9,2.4l-8.8,14L483.2,286.1z"/>
		<path class="st1" d="M493.2,270.1l2.6-4.6l16.7,9.6l5.6-9.8l4,2.3l-8.3,14.4L493.2,270.1z"/>
	</g>
</g>
</svg>
